<?xml version="1.0" encoding="UTF-8" standalone="no"?>
<!-- Created with Inkscape (http://www.inkscape.org/) -->

<svg
   xmlns:dc="http://purl.org/dc/elements/1.1/"
   xmlns:cc="http://creativecommons.org/ns#"
   xmlns:rdf="http://www.w3.org/1999/02/22-rdf-syntax-ns#"
   xmlns:svg="http://www.w3.org/2000/svg"
   xmlns="http://www.w3.org/2000/svg"
   xmlns:sodipodi="http://sodipodi.sourceforge.net/DTD/sodipodi-0.dtd"
   xmlns:inkscape="http://www.inkscape.org/namespaces/inkscape"
   width="64px"
   height="64px"
   id="svg2985"
   version="1.1"
   inkscape:version="0.48.4 r9939"
   sodipodi:docname="five_32b.svg">
  <defs
     id="defs2987" />
  <sodipodi:namedview
     id="base"
     pagecolor="#7cffbc"
     bordercolor="#666666"
     borderopacity="1.0"
     inkscape:pageopacity="0.47843137"
     inkscape:pageshadow="2"
     inkscape:zoom="5.5"
     inkscape:cx="45.842596"
     inkscape:cy="39.081169"
     inkscape:current-layer="layer1"
     showgrid="true"
     inkscape:document-units="px"
     inkscape:grid-bbox="true"
     inkscape:window-width="1086"
     inkscape:window-height="709"
     inkscape:window-x="171"
     inkscape:window-y="171"
     inkscape:window-maximized="0" />
  <metadata
     id="metadata2990">
    <rdf:RDF>
      <cc:Work
         rdf:about="">
        <dc:format>image/svg+xml</dc:format>
        <dc:type
           rdf:resource="http://purl.org/dc/dcmitype/StillImage" />
        <dc:title />
      </cc:Work>
    </rdf:RDF>
  </metadata>
  <g
     id="layer1"
     inkscape:label="Layer 1"
     inkscape:groupmode="layer">
    <g
       style="font-size:145.55844116px;font-style:normal;font-variant:normal;font-weight:normal;font-stretch:normal;line-height:125%;letter-spacing:0px;word-spacing:0px;fill:#ffffff;fill-opacity:1;stroke:none;font-family:ProggySmallTT;-inkscape-font-specification:ProggySmallTT"
       id="text2993">
      <path
         d="m 4.7077923,9.2564926 0,-9.09740256 9.0974027,0 0,9.09740256 z m 9.0974027,0 0,-9.09740256 9.097402,0 0,9.09740256 z m 9.097402,0 0,-9.09740256 9.097403,0 0,9.09740256 z m 9.097403,0 0,-9.09740256 9.097403,0 0,9.09740256 z m 9.097403,0 0,-9.09740256 9.097402,0 0,9.09740256 z m 9.097402,0 0,-9.09740256 9.097403,0 0,9.09740256 z m -45.4870127,9.0974024 0,-9.0974024 9.0974027,0 0,9.0974024 z m 0,9.097403 0,-9.097403 9.0974027,0 0,9.097403 z m 0,9.097402 0,-9.097402 9.0974027,0 0,9.097402 z m 9.0974027,0 0,-9.097402 9.097402,0 0,9.097402 z m 9.097402,0 0,-9.097402 9.097403,0 0,9.097402 z m 9.097403,0 0,-9.097402 9.097403,0 0,9.097402 z m 9.097403,0 0,-9.097402 9.097402,0 0,9.097402 z m 9.097402,9.097403 0,-9.097403 9.097403,0 0,9.097403 z m -45.4870127,9.097402 0,-9.097402 9.0974027,0 0,9.097402 z m 45.4870127,0 0,-9.097402 9.097403,0 0,9.097402 z m -36.38961,9.097403 0,-9.097403 9.097402,0 0,9.097403 z m 9.097402,0 0,-9.097403 9.097403,0 0,9.097403 z m 9.097403,0 0,-9.097403 9.097403,0 0,9.097403 z m 9.097403,0 0,-9.097403 9.097402,0 0,9.097403 z"
         style=""
         id="path3773" />
    </g>
  </g>
</svg>
